# xmcd
#
# Track frame offsets:
#	150
#	14052
#	32920
#	50280
#	63520
#	79580
#	97642
#	112592
#	130715
#	155455
#	168145
#
# Disc length: 2396 seconds
#
# Revision: 1
# Processed by: cddbd v1.4b41PL1 Copyright (c) Steve Scherf et al.
# Submitted via: audiograbber 1.80
#
DISCID=76095a0b
DTITLE=Arctic Cowboys - Arctic Cowboys
DYEAR=1900
DGENRE=
TTITLE0=When The Going Gets Tough
TTITLE1=Arctic Cowboy
TTITLE2=As Long As You're Dreamin'
TTITLE3=Someone Special
TTITLE4=The Moonshine Song
TTITLE5=Highway 69
TTITLE6=Time Goes By
TTITLE7=Don't Give Up
TTITLE8=Rolling On
TTITLE9=The Second One
TTITLE10=Take Me Back
EXTD=
EXTT0=
EXTT1=
EXTT2=
EXTT3=
EXTT4=
EXTT5=
EXTT6=
EXTT7=
EXTT8=
EXTT9=
EXTT10=
PLAYORDER=
